<?xml version="1.0" encoding="utf-8"?>
<!-- Generator: Adobe Illustrator 27.5.0, SVG Export Plug-In . SVG Version: 6.00 Build 0)  -->
<svg version="1.1" xmlns="http://www.w3.org/2000/svg" xmlns:xlink="http://www.w3.org/1999/xlink" x="0px" y="0px"
	 viewBox="0 0 500 500" style="enable-background:new 0 0 500 500;" xml:space="preserve">
<g id="Floor">
	<ellipse style="fill:#F5F5F5;" cx="250" cy="356.974" rx="208.822" ry="120.564"/>
</g>
<g id="Shadows">
	<ellipse style="fill:#E0E0E0;" cx="282.769" cy="415.325" rx="45.158" ry="26.072"/>
	<path style="fill:#E0E0E0;" d="M259.302,327.05l-120.79,69.75c-3.398,1.962-9.334,1.716-13.258-0.55l-42.884-24.759
		c-3.924-2.266-4.35-5.693-0.952-7.655l120.79-69.75c3.398-1.962,9.334-1.716,13.258,0.55l42.884,24.759
		C262.274,321.66,262.701,325.088,259.302,327.05z"/>
</g>
<g id="Plants">
	<g>
		<g>
			<path style="fill:#FD800C;" d="M389.365,351.405l9.515,5.527c0,0-4.801-15.326-2.136-30.743c1.006-5.819,3.123-8.71,3.87-10.263
				c0.747-1.553,6.484-11.169,1.434-15.602c-5.05-4.433-16.899,4.385-16.368,28.13C385.952,340.639,389.365,351.405,389.365,351.405
				z"/>
			<path style="opacity:0.5;" d="M389.365,351.405l9.515,5.527c0,0-4.801-15.326-2.136-30.743c1.006-5.819,3.123-8.71,3.87-10.263
				c0.747-1.553,6.484-11.169,1.434-15.602c-5.05-4.433-16.899,4.385-16.368,28.13C385.952,340.639,389.365,351.405,389.365,351.405
				z"/>
			<path style="fill:#FFFFFF;" d="M393.788,354.406c-0.176,0-0.341-0.108-0.405-0.283c-0.036-0.099-3.634-10.09-3.444-26.113
				c0.19-16.12,8.661-24.716,8.747-24.801c0.168-0.167,0.442-0.168,0.609,0.002c0.168,0.169,0.168,0.442-0.001,0.61
				c-0.083,0.082-8.307,8.451-8.492,24.198c-0.188,15.852,3.355,25.708,3.392,25.806c0.082,0.224-0.033,0.472-0.257,0.554
				C393.888,354.398,393.838,354.406,393.788,354.406z"/>
		</g>
		<g>
			<path style="fill:#FD800C;" d="M396.744,355.723l15.718,9.244c0,0,7.197-1.06,6.652-7.835c-0.545-6.775-3.469-8.371,0.172-11.348
				c3.641-2.977,4.581-3.174,4.407-6.092c-0.174-2.918-2.137-4.19-3.061-5.346c-0.923-1.156-3.498-3.582-1.686-7.101
				c1.812-3.519,4.266-6.918,0.621-8.531c-2.175-0.963-5.834,0.243-8.259,2.818c-2.425,2.575-4.426,4.425-6.723,5.023
				c-2.298,0.598-7.088,0.645-6.927,4.604c0.161,3.959,1.189,5.326,0.229,7.083C396.078,341.553,388.352,343.337,396.744,355.723z"
				/>
			<path style="opacity:0.2;" d="M396.744,355.723l15.718,9.244c0,0,7.197-1.06,6.652-7.835c-0.545-6.775-3.469-8.371,0.172-11.348
				c3.641-2.977,4.581-3.174,4.407-6.092c-0.174-2.918-2.137-4.19-3.061-5.346c-0.923-1.156-3.498-3.582-1.686-7.101
				c1.812-3.519,4.266-6.918,0.621-8.531c-2.175-0.963-5.834,0.243-8.259,2.818c-2.425,2.575-4.426,4.425-6.723,5.023
				c-2.298,0.598-7.088,0.645-6.927,4.604c0.161,3.959,1.189,5.326,0.229,7.083C396.078,341.553,388.352,343.337,396.744,355.723z"
				/>
			<path style="fill:#FFFFFF;" d="M403.145,359.919c-0.222,0-0.411-0.171-0.43-0.396c-0.019-0.235-1.729-23.672,14.554-39.063
				c0.174-0.164,0.446-0.156,0.61,0.017c0.164,0.173,0.156,0.446-0.017,0.61c-15.977,15.101-14.306,38.134-14.286,38.365
				c0.018,0.238-0.158,0.446-0.396,0.465C403.169,359.918,403.157,359.919,403.145,359.919z"/>
			<path style="fill:#FFFFFF;" d="M405.964,339.834c-0.225,0-0.414-0.173-0.431-0.4c-0.456-6.148-4.734-9.312-4.778-9.343
				c-0.192-0.14-0.236-0.409-0.097-0.603c0.138-0.192,0.407-0.238,0.602-0.098c0.189,0.137,4.647,3.416,5.135,9.98
				c0.018,0.237-0.161,0.444-0.398,0.462C405.985,339.833,405.974,339.834,405.964,339.834z"/>
			<path style="fill:#FFFFFF;" d="M404.803,343.833c-0.104,0-0.206-0.037-0.289-0.111c-0.177-0.159-0.191-0.431-0.032-0.608
				c0.17-0.19,4.268-4.62,13.746-3.318c0.236,0.033,0.401,0.251,0.369,0.486c-0.033,0.236-0.25,0.399-0.486,0.369
				c-8.992-1.234-12.948,2.999-12.987,3.04C405.038,343.785,404.921,343.833,404.803,343.833z"/>
		</g>
	</g>
	<g>
		<g>
			<path style="fill:#FD800C;" d="M101.124,337.943l-4.699,9.949c0,0-4.742-15.344-15.684-26.527
				c-4.13-4.221-7.513-5.401-9.01-6.255c-1.497-0.855-11.676-5.519-10.033-12.034c1.643-6.516,16.404-5.978,29.438,13.877
				C97.827,327.141,101.124,337.943,101.124,337.943z"/>
			<path style="opacity:0.5;" d="M101.124,337.943l-4.699,9.949c0,0-4.742-15.344-15.684-26.527c-4.13-4.221-7.513-5.401-9.01-6.255
				c-1.497-0.855-11.676-5.519-10.033-12.034c1.643-6.516,16.404-5.978,29.438,13.877
				C97.827,327.141,101.124,337.943,101.124,337.943z"/>
			<path style="fill:#FFFFFF;" d="M98.939,343c-0.192,0-0.368-0.129-0.418-0.324c-0.026-0.101-2.7-10.228-11.849-23.174
				c-9.088-12.862-20.607-15.087-20.723-15.108c-0.234-0.043-0.39-0.267-0.348-0.502c0.043-0.234,0.264-0.389,0.502-0.348
				c0.118,0.021,11.971,2.293,21.273,15.459c9.247,13.087,11.953,23.355,11.979,23.458c0.06,0.231-0.08,0.466-0.311,0.525
				C99.011,342.996,98.975,343,98.939,343z"/>
		</g>
		<g>
			<path style="fill:#FD800C;" d="M97.498,345.685L89.8,362.216c0,0-6.528,3.211-9.924-2.677c-3.395-5.888-1.893-8.861-6.58-9.247
				c-4.687-0.385-5.573-0.015-7.085-2.516c-1.512-2.501-0.618-4.663-0.513-6.139c0.104-1.476,0.848-4.934-2.64-6.804
				c-3.488-1.87-7.438-3.276-5.352-6.672c1.245-2.027,4.942-3.11,8.4-2.366c3.458,0.744,6.155,1.133,8.386,0.321
				c2.231-0.812,6.203-3.49,8.316-0.139c2.113,3.352,2.043,5.06,3.831,5.963C90.007,333.64,97.381,330.724,97.498,345.685z"/>
			<path style="opacity:0.2;" d="M97.498,345.685L89.8,362.216c0,0-6.528,3.211-9.924-2.677c-3.395-5.888-1.893-8.861-6.58-9.247
				c-4.687-0.385-5.573-0.015-7.085-2.516c-1.512-2.501-0.618-4.663-0.513-6.139c0.104-1.476,0.848-4.934-2.64-6.804
				c-3.488-1.87-7.438-3.276-5.352-6.672c1.245-2.027,4.942-3.11,8.4-2.366c3.458,0.744,6.155,1.133,8.386,0.321
				c2.231-0.812,6.203-3.49,8.316-0.139c2.113,3.352,2.043,5.06,3.831,5.963C90.007,333.64,97.381,330.724,97.498,345.685z"/>
			<path style="fill:#FFFFFF;" d="M94.363,352.849c-0.149,0-0.294-0.078-0.374-0.216c-0.115-0.201-11.809-20.116-33.533-23.486
				c-0.235-0.036-0.396-0.257-0.36-0.492c0.036-0.237,0.257-0.401,0.493-0.36c22.142,3.434,34.031,23.704,34.148,23.908
				c0.119,0.207,0.048,0.471-0.159,0.589C94.511,352.83,94.437,352.849,94.363,352.849z"/>
			<path style="fill:#FFFFFF;" d="M80.646,337.909c-0.147,0-0.292-0.077-0.372-0.214c-3.324-5.681-1.515-10.911-1.436-11.131
				c0.079-0.224,0.324-0.342,0.551-0.261c0.225,0.08,0.342,0.327,0.262,0.551c-0.018,0.05-1.746,5.083,1.367,10.405
				c0.121,0.206,0.052,0.47-0.154,0.59C80.796,337.89,80.721,337.909,80.646,337.909z"/>
			<path style="fill:#FFFFFF;" d="M71.061,345.509c-0.117,0-0.233-0.047-0.318-0.141c-0.161-0.176-0.148-0.449,0.027-0.61
				c7.063-6.448,12.956-5.124,13.202-5.066c0.231,0.055,0.374,0.288,0.318,0.519c-0.054,0.231-0.281,0.377-0.519,0.32
				c-0.058-0.013-5.717-1.255-12.42,4.864C71.269,345.472,71.164,345.509,71.061,345.509z"/>
		</g>
	</g>
</g>
<g id="Device">
	<g>
		<g>
			<polygon style="fill:#37474F;" points="219.574,66.394 219.574,66.394 219.574,66.393 			"/>
			<path style="fill:#37474F;" d="M97.608,136.505c0-5.928,3.163-11.407,8.297-14.371l105.519-60.921
				c3.117-1.8,6.898-0.111,7.893,3.06c-0.572-2.469-2.112-4.642-4.341-5.97l-0.376-0.224c-2.626-1.564-5.625-2.389-8.681-2.389
				v0.002c-0.928-0.013-1.883,0.215-2.783,0.735L97.617,117.347c-5.134,2.964-8.297,8.442-8.297,14.371v228.194
				c0,4.183,4.528,6.797,8.151,4.706l0.137-0.079V136.505z"/>
		</g>
		<path style="fill:#455A64;" d="M211.277,308.483l-105.519,60.921c-3.623,2.091-8.151-0.523-8.151-4.706V136.505
			c0-5.928,3.163-11.407,8.297-14.371l105.519-60.921c3.622-2.091,8.15,0.523,8.15,4.706v228.194
			C219.574,300.041,216.411,305.519,211.277,308.483z"/>
		<path style="fill:#263238;" d="M97.608,364.699V136.505c0-2.53,0.581-4.977,1.64-7.182l-8.159-5.053
			c-1.143,2.274-1.769,4.816-1.769,7.448v227.719v0.475v1.906c0,1.842,0.97,3.548,2.553,4.491l4.207,2.505
			c1.457,0.868,3.122,1.326,4.819,1.326h2.077v-0.002C100.166,370.1,97.608,367.843,97.608,364.699z"/>
		<g>
			<path style="fill:#37474F;" d="M207.645,83.146v191.799c0,5.235-2.793,10.073-7.327,12.69l-93.179,53.797
				c-0.747,0.431-1.538,0.628-2.311,0.641c1.08,2.501,4.208,3.745,6.808,2.244l93.179-53.797c4.534-2.618,7.327-7.455,7.327-12.69
				V87.932C212.143,85.247,210.028,83.304,207.645,83.146z"/>
			<g>
				<path style="fill:#FD800C;" d="M104.829,342.074c0.773-0.013,1.564-0.21,2.311-0.641l93.179-53.797
					c4.534-2.618,7.327-7.455,7.327-12.69V83.146c0.438,0.029-1.399-0.121-2.7,0.631l-93.179,53.797
					c-4.534,2.618-7.327,7.455-7.327,12.69v189.899c0,0.702,0.146,1.353,0.402,1.936
					C104.838,342.091,104.833,342.083,104.829,342.074z"/>
			</g>
			<g style="opacity:0.5;">
				<path style="fill:#FFFFFF;" d="M104.829,342.074c0.773-0.013,1.564-0.21,2.311-0.641l93.179-53.797
					c4.534-2.618,7.327-7.455,7.327-12.69V83.146c0.438,0.029-1.399-0.121-2.7,0.631l-93.179,53.797
					c-4.534,2.618-7.327,7.455-7.327,12.69v189.899c0,0.702,0.146,1.353,0.402,1.936
					C104.838,342.091,104.833,342.083,104.829,342.074z"/>
			</g>
		</g>
		<g>
			<path style="fill:#263238;" d="M143.824,109.463c0,1.07-0.751,2.371-1.678,2.906c-0.927,0.535-1.678,0.101-1.678-0.969
				c0-1.07,0.751-2.371,1.678-2.906C143.072,107.959,143.824,108.393,143.824,109.463z"/>
			<path style="fill:#263238;" d="M150.066,105.859c0,1.07-0.751,2.371-1.678,2.906c-0.927,0.535-1.678,0.101-1.678-0.969
				c0-1.07,0.751-2.371,1.678-2.906C149.314,104.355,150.066,104.789,150.066,105.859z"/>
			<path style="fill:#263238;" d="M175.261,93.25l-20.295,11.718c-0.803,0.463-1.453-0.029-1.453-1.099l0,0
				c0-1.07,0.651-2.313,1.453-2.776l20.295-11.717c0.803-0.463,1.453,0.028,1.453,1.098l0,0
				C176.714,91.544,176.063,92.787,175.261,93.25z"/>
		</g>
		<path style="fill:#263238;" d="M171.827,315.682L171.827,315.682c1.212,0,1.996,1.286,1.996,3.275
			c0,3.127-1.956,6.897-4.271,8.234l-9.707,5.605c-0.518,0.299-1.005,0.451-1.446,0.451c-1.212,0-1.996-1.285-1.996-3.275
			c0-3.127,1.956-6.897,4.271-8.234l9.707-5.604C170.9,315.834,171.386,315.682,171.827,315.682 M171.827,314.853
			c-0.57,0-1.199,0.181-1.86,0.562l-9.707,5.604c-2.588,1.494-4.685,5.502-4.685,8.952c0,2.569,1.163,4.104,2.825,4.104
			c0.57,0,1.199-0.181,1.86-0.562l9.707-5.604c2.588-1.494,4.685-5.502,4.685-8.952
			C174.652,316.388,173.489,314.853,171.827,314.853L171.827,314.853z"/>
	</g>
</g>
<g id="Screen">
	<g>
		<g>
			<g>
				<g>
					<path style="fill:#E6E6E6;" d="M118.185,163.707v214.987c0,3.894,1.431,6.51,3.618,7.369l0.061,0.02l0.01,0.01l9.291,5.09
						l-0.051-8.268l-1.032-222.929l-9.812-5.018C118.972,157.749,118.185,160.835,118.185,163.707z"/>
					<path style="fill:#E6E6E6;" d="M131.67,392.031l-10.056-5.51c-2.492-1.029-3.929-3.936-3.929-7.827V163.707
						c0-2.827,0.757-6.005,2.132-8.95l0.22-0.47l10.544,5.393l0.001,0.304l1.032,222.929L131.67,392.031z M122.115,385.656
						l8.545,4.682l-0.046-7.419l-1.031-222.625l-9.073-4.641c-1.179,2.679-1.824,5.521-1.824,8.055v214.987
						c0,3.511,1.234,6.092,3.301,6.904l0.128,0.06L122.115,385.656z"/>
				</g>
				<g>
					<path style="fill:#E0E0E0;" d="M120.27,154.968l9.812,5.018l105.007-61.089l7.011-4.078l-9.689-5.458l-0.276-0.163v-0.01
						c-1.543-0.93-3.567-0.869-5.795,0.419l-99.396,57.389C124.266,148.54,121.875,151.514,120.27,154.968z"/>
					<path style="fill:#E0E0E0;" d="M130.082,160.487c-0.078,0-0.156-0.018-0.227-0.055l-9.812-5.018
						c-0.239-0.123-0.339-0.412-0.226-0.656c1.705-3.671,4.212-6.658,6.877-8.195l99.397-57.389c2.3-1.329,4.539-1.478,6.303-0.414
						c0.026,0.016,0.051,0.034,0.073,0.054l0.199,0.119l9.68,5.452c0.156,0.088,0.254,0.253,0.255,0.432
						c0.001,0.179-0.094,0.346-0.249,0.436l-112.019,65.167C130.256,160.464,130.169,160.487,130.082,160.487z M120.932,154.745
						l9.135,4.673l111.027-64.591l-9.213-5.199c-0.027-0.016-0.052-0.034-0.075-0.054c-1.428-0.819-3.275-0.654-5.215,0.466
						l-99.397,57.389C124.807,148.805,122.542,151.456,120.932,154.745z"/>
				</g>
				<path style="fill:#FAFAFA;" d="M127.813,169.114v214.016c0,3.373,1.073,5.795,2.79,6.93l0.562,0.307
					c1.492,0.705,3.363,0.552,5.397-0.623l48.047-27.739l51.349-30.907c4.834-2.79,8.759-9.026,8.759-15.465V101.627
					c0-3.26-1.002-5.621-2.617-6.807c-0.276-0.204-0.572-0.378-0.889-0.501c-1.462-0.624-3.281-0.439-5.253,0.695l-99.396,58.357
					c-2.576,1.482-4.886,3.335-6.48,6.616C128.672,162.859,127.813,166.099,127.813,169.114z"/>
			</g>
			<g>
				<path style="fill:#FAFAFA;" d="M235.958,331.097c-20.453,12.201-73.661,43.957-100,59.821c-3.449,2.077-7.838-0.409-7.838-4.435
					V166.416c0-5.095,2.701-9.808,7.096-12.384l101.22-59.322c3.449-2.021,7.791,0.466,7.791,4.464v217.359
					C244.227,322.506,241.088,328.037,235.958,331.097z"/>
				<path style="fill:#EBEBEB;" d="M235.706,330.665c-16.057,9.579-32.11,19.163-48.159,28.756
					c-9.501,5.679-19.001,11.362-28.496,17.05c-4.339,2.599-8.676,5.2-13.012,7.803c-1.897,1.139-3.793,2.278-5.689,3.418
					c-1.75,1.052-3.615,2.55-5.548,3.222c-3.209,1.115-6.098-1.452-6.183-4.62c-0.014-0.511,0-1.024,0-1.535
					c0-2.475,0-4.951,0-7.426c0-9.637,0-19.274,0-28.912c0-13.799,0-27.597,0-41.396c0-15.504,0-31.008,0-46.512
					c0-14.6,0-29.201,0-43.801c0-11.24,0-22.479,0-33.719c0-5.374-0.012-10.748,0-16.122c0.012-5.287,2.567-9.874,7.136-12.575
					c2.32-1.371,4.65-2.725,6.976-4.088c10.9-6.388,21.8-12.776,32.701-19.165c12.916-7.569,25.831-15.139,38.747-22.708
					c7.349-4.307,14.68-8.647,22.048-12.922c2.282-1.324,5.155-1.194,6.741,1.195c0.644,0.97,0.755,2.048,0.759,3.159
					c0.006,1.918,0,3.835,0,5.753c0,8.856,0,17.713,0,26.569c0,13.41,0,26.82,0,40.23c0,15.394,0,30.788,0,46.182
					c0,14.852,0,29.703,0,44.555c0,11.639,0,23.279,0,34.918c0,5.907,0,11.814,0,17.721
					C243.727,321.839,241.041,327.387,235.706,330.665c-0.547,0.336-0.046,1.202,0.505,0.863c5.564-3.419,8.516-9.246,8.516-15.697
					c0-2.047,0-4.094,0-6.141c0-9.17,0-18.34,0-27.51c0-13.731,0-27.462,0-41.193c0-15.722,0-31.444,0-47.166
					c0-14.835,0-29.67,0-44.505c0-11.402,0-22.804,0-34.206c0-5.226,0.056-10.454,0-15.68c-0.051-4.755-4.841-7.285-8.878-4.956
					c-2.437,1.405-4.854,2.845-7.281,4.267c-11.2,6.564-22.401,13.128-33.601,19.692c-13.032,7.638-26.065,15.276-39.097,22.913
					c-6.913,4.052-13.849,8.068-20.741,12.155c-4.787,2.839-7.493,7.772-7.509,13.308c-0.005,1.8,0,3.599,0,5.399
					c0,8.745,0,17.49,0,26.236c0,13.451,0,26.903,0,40.354c0,15.655,0,31.31,0,46.965c0,15.05,0,30.099,0,45.149
					c0,11.966,0,23.932,0,35.898c0,6.208,0,12.416,0,18.624c0,0.344-0.011,0.689,0,1.033c0.118,3.766,3.741,6.649,7.448,5.408
					c1.888-0.632,3.67-2.05,5.37-3.072c1.933-1.163,3.867-2.324,5.801-3.486c4.323-2.595,8.648-5.188,12.973-7.78
					c18.911-11.33,37.836-22.636,56.764-33.936c6.744-4.026,13.489-8.051,20.234-12.075
					C236.763,331.199,236.261,330.334,235.706,330.665z"/>
			</g>
			<path style="fill:#EBEBEB;" d="M135.216,154.032l101.22-59.322c3.449-2.021,7.79,0.466,7.79,4.464v9.548l-0.03,0.002
				L128.12,175.74v-9.325C128.12,161.321,130.821,156.608,135.216,154.032z"/>
		</g>
		<g>
			
				<ellipse transform="matrix(0.5 -0.866 0.866 0.5 -76.0709 258.8929)" style="fill:#FD800C;" cx="186.173" cy="195.326" rx="37.174" ry="21.462"/>
			
				<ellipse transform="matrix(0.5 -0.866 0.866 0.5 -76.0709 258.8929)" style="opacity:0.5;fill:#FFFFFF;" cx="186.173" cy="195.326" rx="37.174" ry="21.462"/>
			<g>
				<path style="fill:#37474F;" d="M181.458,195.443c-0.652,0-1.18-0.528-1.18-1.18v-7.773c0-3.435,2.33-7.471,5.305-9.189
					c1.64-0.947,3.243-1.064,4.514-0.33c1.271,0.734,1.971,2.181,1.971,4.074v7.773c0,0.652-0.528,1.18-1.18,1.18
					c-0.652,0-1.18-0.528-1.18-1.18v-7.773c0-1-0.288-1.74-0.791-2.031c-0.503-0.29-1.288-0.17-2.154,0.33
					c-2.236,1.291-4.125,4.563-4.125,7.145v7.773C182.638,194.915,182.11,195.443,181.458,195.443z"/>
				<g>
					<path style="fill:#FD800C;" d="M195.701,183.807c-0.458-0.22-1.036-0.178-1.666,0.186l-15.723,9.078
						c-0.63,0.364-1.208,0.989-1.666,1.739c-0.619,1.013-1.017,2.253-1.017,3.389v13.612c0,0.986,0.299,1.705,0.783,2.073
						c0.085,0.065,0.178,0.115,0.275,0.158l0,0l0,0c0.452,0.199,1.014,0.151,1.626-0.202l15.723-9.077
						c1.482-0.856,2.684-3.152,2.684-5.128v-13.612C196.719,184.885,196.32,184.104,195.701,183.807z"/>
				</g>
				<g>
					<path style="fill:#455A64;" d="M187.961,197.991l1.515,4.358l-5.327,3.075l1.334-5.382l0.188-0.762
						c-0.9,0.026-1.522-0.67-1.522-1.895c0-0.469,0.089-0.963,0.249-1.451c0.427-1.292,1.349-2.546,2.415-3.161
						c1.471-0.849,2.664-0.163,2.664,1.538c0,1.225-0.625,2.641-1.525,3.656L187.961,197.991z"/>
					<path style="fill:#37474F;" d="M185.482,200.042l0.188-0.762c-0.9,0.026-1.522-0.67-1.522-1.895
						c0-0.469,0.089-0.963,0.249-1.451l3.563,2.058l1.515,4.358L185.482,200.042z"/>
				</g>
			</g>
		</g>
		<g>
			<path style="fill:#FD800C;" d="M224.947,245.656L147.4,290.429c-3.208,1.852-5.809-0.114-5.809-4.391v-11.748
				c0-4.277,2.601-9.246,5.809-11.098l77.548-44.772c3.208-1.852,5.809,0.114,5.809,4.391v11.748
				C230.756,238.835,228.155,243.804,224.947,245.656z"/>
			<g>
				<g>
					<rect x="159.855" y="262.133" style="fill:#FAFAFA;" width="1.5" height="12.434"/>
					
						<rect x="154.388" y="267.6" transform="matrix(0.866 -0.5001 0.5001 0.866 -112.6703 116.2763)" style="fill:#FAFAFA;" width="12.435" height="1.5"/>
					
						<rect x="159.855" y="263.953" transform="matrix(0.5 -0.866 0.866 0.5 -152.0957 273.2669)" style="fill:#FAFAFA;" width="1.5" height="8.793"/>
					
						<rect x="152.99" y="267.6" transform="matrix(0.5001 -0.866 0.866 0.5001 -152.0961 273.2378)" style="fill:#FAFAFA;" width="15.229" height="1.5"/>
				</g>
				<g>
					<rect x="185.424" y="248.206" style="fill:#FAFAFA;" width="1.5" height="12.435"/>
					
						<rect x="179.956" y="253.674" transform="matrix(0.866 -0.5001 0.5001 0.866 -102.2794 127.1959)" style="fill:#FAFAFA;" width="12.434" height="1.5"/>
					
						<rect x="185.423" y="250.028" transform="matrix(0.5 -0.866 0.866 0.5 -127.2502 288.4463)" style="fill:#FAFAFA;" width="1.5" height="8.792"/>
					
						<rect x="178.559" y="253.674" transform="matrix(0.5001 -0.866 0.866 0.5001 -127.2535 288.4179)" style="fill:#FAFAFA;" width="15.229" height="1.5"/>
				</g>
				<g>
					<rect x="210.992" y="234.28" style="fill:#FAFAFA;" width="1.5" height="12.434"/>
					
						<rect x="205.525" y="239.747" transform="matrix(0.866 -0.5 0.5 0.866 -91.8852 138.1059)" style="fill:#FAFAFA;" width="12.435" height="1.5"/>
					
						<rect x="210.993" y="236.101" transform="matrix(0.5 -0.866 0.866 0.5 -102.4047 303.6268)" style="fill:#FAFAFA;" width="1.5" height="8.792"/>
					
						<rect x="204.128" y="239.747" transform="matrix(0.5 -0.866 0.866 0.5 -102.4081 303.6086)" style="fill:#FAFAFA;" width="15.229" height="1.5"/>
				</g>
			</g>
		</g>
		<g>
			<path style="fill:#FD800C;" d="M227.254,261.843c1.038,0,1.502,1.551,1.502,3.088v11.748c0,3.572-2.202,7.862-4.809,9.366
				L146.4,330.817c-0.486,0.281-0.938,0.429-1.306,0.429c-1.038,0-1.502-1.551-1.502-3.088V316.41c0-3.572,2.202-7.862,4.809-9.366
				l77.548-44.772C226.433,261.991,226.885,261.843,227.254,261.843 M227.253,259.843c-0.707,0-1.487,0.224-2.306,0.697
				L147.4,305.312c-3.208,1.852-5.809,6.821-5.809,11.098v11.748c0,3.185,1.441,5.088,3.502,5.088c0.707,0,1.487-0.224,2.306-0.697
				l77.548-44.772c3.208-1.852,5.809-6.821,5.809-11.098v-11.748C230.756,261.746,229.314,259.843,227.253,259.843L227.253,259.843z
				"/>
			
				<text transform="matrix(0.866 -0.5 0 1 167.1501 310.9482)" style="fill:#FD800C; font-family:'Montserrat-ExtraBold'; font-size:11.6086px; letter-spacing:2;">enter</text>
		</g>
	</g>
</g>
<g id="Icons">
	<g>
		<path style="fill:#455A64;" d="M341.391,128.31c0,1.446,1.035,3.205,2.311,3.928c1.276,0.723,2.311,0.137,2.311-1.309
			c0-1.446-1.035-3.205-2.311-3.928C342.426,126.277,341.391,126.863,341.391,128.31z"/>
		<path style="fill:#455A64;" d="M310.417,137.625c-1.771,0-3.727-0.577-5.746-1.722l-7.332-4.154
			c-0.24-0.136-0.325-0.441-0.189-0.682c0.136-0.241,0.443-0.324,0.681-0.188l7.332,4.154c3.162,1.792,6.1,2.08,8.272,0.814
			c2.125-1.239,3.296-3.851,3.296-7.355c0-3.875,1.347-6.795,3.793-8.22c2.493-1.453,5.784-1.165,9.267,0.808l11.849,6.713
			c0.24,0.136,0.325,0.441,0.188,0.682c-0.137,0.24-0.444,0.323-0.681,0.189l-11.849-6.713c-3.162-1.791-6.099-2.08-8.271-0.814
			c-2.126,1.239-3.297,3.851-3.297,7.356c0,3.875-1.347,6.794-3.793,8.219C312.891,137.321,311.702,137.625,310.417,137.625z"/>
		<path style="fill:#455A64;" d="M294.313,129.506c0,1.17,0.837,2.592,1.869,3.177c1.032,0.585,1.869,0.111,1.869-1.059
			c0-1.169-0.837-2.592-1.869-3.176C295.15,127.863,294.313,128.337,294.313,129.506z"/>
	</g>
	<g>
		<path style="fill:#455A64;" d="M341.391,215.717c0,1.446,1.035,3.205,2.311,3.928c1.276,0.723,2.311,0.137,2.311-1.309
			s-1.035-3.205-2.311-3.928C342.426,213.684,341.391,214.271,341.391,215.717z"/>
		<path style="fill:#455A64;" d="M341.48,216.811c-0.084,0-0.169-0.021-0.246-0.065l-11.849-6.713
			c-6.93-3.927-12.566-13.511-12.566-21.366c0-7.533-5.41-16.728-12.06-20.496l-7.421-4.205c-0.24-0.136-0.325-0.441-0.189-0.682
			c0.136-0.241,0.443-0.325,0.681-0.189l7.421,4.205c6.93,3.927,12.567,13.511,12.567,21.366c0,7.533,5.409,16.727,12.059,20.496
			l11.849,6.713c0.24,0.136,0.325,0.441,0.188,0.682C341.823,216.72,341.654,216.811,341.48,216.811z"/>
		<path style="fill:#455A64;" d="M294.313,161.541c0,1.169,0.837,2.592,1.869,3.177c1.032,0.585,1.869,0.111,1.869-1.059
			s-0.837-2.592-1.869-3.177C295.15,159.897,294.313,160.371,294.313,161.541z"/>
	</g>
	<g>
		<g>
			<path style="fill:#FD800C;" d="M412.594,118.884l-48.979-27.741c-1.403-0.81-2.664-0.749-3.558-0.007l-4.232,2.926l2.886,3.568
				v51.625c0,3.611,2.195,7.806,4.904,9.37l47.763,27.039l0.225,3.845l4.459-3.056c0.887-0.671,1.436-1.989,1.436-3.794v-54.406
				C417.497,124.643,415.302,120.448,412.594,118.884z"/>
			<path style="opacity:0.3;" d="M412.594,118.884l-48.979-27.741c-1.403-0.81-2.664-0.749-3.558-0.007l-4.232,2.926l2.886,3.568
				v51.625c0,3.611,2.195,7.806,4.904,9.37l47.763,27.039l0.225,3.845l4.459-3.056c0.887-0.671,1.436-1.989,1.436-3.794v-54.406
				C417.497,124.643,415.302,120.448,412.594,118.884z"/>
			<path style="fill:#FD800C;" d="M408.43,189.233l-48.979-27.741c-2.708-1.564-4.904-5.759-4.904-9.37V97.716
				c0-3.611,2.196-5.271,4.904-3.707l48.979,27.741c2.708,1.564,4.904,5.759,4.904,9.37v54.406
				C413.334,189.137,411.138,190.797,408.43,189.233z"/>
		</g>
		<g>
			<path style="fill:#FFFFFF;" d="M398.138,142.154c-0.221,0-0.423-0.147-0.483-0.371c-1.022-3.81-2.681-7.586-4.796-10.92
				c-0.148-0.233-0.079-0.542,0.154-0.69c0.231-0.148,0.541-0.08,0.689,0.154c2.169,3.419,3.87,7.291,4.918,11.197
				c0.072,0.267-0.086,0.54-0.352,0.612C398.224,142.148,398.181,142.154,398.138,142.154z"/>
			<path style="fill:#FFFFFF;" d="M399.263,152.316c-0.012,0-0.022-0.001-0.034-0.001c-0.275-0.018-0.483-0.256-0.466-0.532
				c0.035-0.538,0.054-1.093,0.054-1.664c0-1.644-0.151-3.361-0.451-5.105c-0.046-0.272,0.137-0.531,0.408-0.577
				c0.275-0.045,0.531,0.136,0.578,0.408c0.309,1.799,0.465,3.574,0.465,5.273c0,0.593-0.018,1.169-0.056,1.729
				C399.743,152.114,399.523,152.316,399.263,152.316z"/>
			<path style="fill:#FFFFFF;" d="M368.675,135.722c-0.256,0-0.475-0.196-0.497-0.457c-0.076-0.867-0.114-1.732-0.114-2.571
				c0-4.851,1.308-8.858,3.682-11.284c0.192-0.197,0.509-0.201,0.707-0.008c0.197,0.193,0.201,0.51,0.008,0.707
				c-2.19,2.238-3.396,5.997-3.396,10.584c0,0.81,0.037,1.645,0.11,2.484c0.024,0.275-0.18,0.518-0.454,0.542
				C368.704,135.722,368.69,135.722,368.675,135.722z"/>
			<path style="fill:#FFFFFF;" d="M390.789,127.633c-0.145,0-0.288-0.063-0.387-0.184c-2.099-2.567-4.355-4.545-6.708-5.879
				c-3.322-1.882-6.439-2.244-9.011-1.049c-0.248,0.117-0.548,0.009-0.664-0.243c-0.116-0.25-0.008-0.548,0.242-0.665
				c2.878-1.336,6.309-0.962,9.925,1.086c2.461,1.395,4.813,3.453,6.989,6.116c0.175,0.214,0.143,0.529-0.07,0.704
				C391.013,127.596,390.9,127.633,390.789,127.633z"/>
			<path style="fill:#FFFFFF;" d="M372.122,136.105c-0.267,0-0.488-0.21-0.5-0.479c-0.013-0.311-0.019-0.619-0.019-0.926
				c0-3.552,0.87-6.451,2.516-8.382c0.181-0.211,0.496-0.236,0.705-0.056c0.21,0.179,0.235,0.495,0.057,0.705
				c-1.49,1.748-2.277,4.422-2.277,7.733c0,0.293,0.006,0.588,0.019,0.884c0.011,0.276-0.203,0.509-0.479,0.52
				C372.136,136.105,372.129,136.105,372.122,136.105z"/>
			<path style="fill:#FFFFFF;" d="M376.045,125.807c-0.168,0-0.332-0.084-0.426-0.238c-0.145-0.235-0.071-0.543,0.164-0.688
				c1.252-0.769,2.686-1.081,4.245-0.925c0.275,0.027,0.476,0.272,0.449,0.547c-0.027,0.275-0.275,0.471-0.547,0.448
				c-1.348-0.134-2.563,0.13-3.624,0.782C376.225,125.783,376.135,125.807,376.045,125.807z"/>
			<path style="fill:#FFFFFF;" d="M398.138,158.749c-0.197,0-0.385-0.118-0.464-0.313l-0.586-1.45
				c-1.19-2.949-1.816-6.004-1.811-8.836c0-8.48-5.196-18.294-11.582-21.913c-0.24-0.136-0.325-0.441-0.188-0.682
				c0.136-0.241,0.443-0.325,0.681-0.188c6.667,3.777,12.09,13.981,12.09,22.747c-0.005,2.743,0.597,5.667,1.739,8.498l0.586,1.45
				c0.104,0.256-0.021,0.548-0.276,0.651C398.264,158.738,398.2,158.749,398.138,158.749z"/>
			<path style="fill:#FFFFFF;" d="M375.181,153.002c-0.204,0-0.396-0.125-0.47-0.328c-2.522-6.885-3.102-14.53-3.107-14.607
				c-0.019-0.275,0.188-0.515,0.463-0.535c0.24-0.021,0.515,0.186,0.535,0.462c0.005,0.075,0.576,7.585,3.049,14.335
				c0.095,0.259-0.038,0.546-0.298,0.642C375.296,152.993,375.238,153.002,375.181,153.002z"/>
			<path style="fill:#FFFFFF;" d="M395.195,162.122c-0.203,0-0.394-0.124-0.469-0.326l-1.333-3.592
				c-1.407-3.792-2.151-7.593-2.151-10.993v-3.932c0-4.665-3.351-10.359-7.469-12.692c-1.924-1.09-3.699-1.272-5.001-0.512
				c-1.275,0.742-1.976,2.323-1.976,4.453v3.471c0,5.093,1.156,10.796,3.345,16.493l1.651,4.303c0.099,0.258-0.03,0.547-0.288,0.646
				c-0.256,0.098-0.547-0.03-0.646-0.288l-1.651-4.303c-2.231-5.81-3.411-11.637-3.411-16.852v-3.471c0-2.5,0.878-4.388,2.472-5.317
				c1.625-0.947,3.755-0.765,5.997,0.506c4.398,2.492,7.977,8.576,7.977,13.563v3.932c0,3.282,0.723,6.963,2.089,10.645l1.333,3.592
				c0.096,0.259-0.036,0.546-0.295,0.643C395.311,162.112,395.253,162.122,395.195,162.122z"/>
			<path style="fill:#FFFFFF;" d="M390.789,163.554c-0.216,0-0.415-0.141-0.479-0.358l-0.697-2.352
				c-1.324-4.467-1.995-8.767-1.995-12.779v-6.083c0-2.507-1.802-5.568-4.016-6.822c-0.99-0.561-1.895-0.663-2.542-0.284
				c-0.632,0.369-0.98,1.174-0.98,2.268c0,6.752,2.057,14.544,5.791,21.939l1.405,2.783c0.124,0.247,0.025,0.547-0.221,0.672
				c-0.246,0.123-0.548,0.025-0.672-0.221l-1.405-2.783c-3.804-7.533-5.898-15.484-5.898-22.391c0-1.465,0.524-2.577,1.478-3.132
				c0.967-0.564,2.226-0.465,3.537,0.278c2.494,1.413,4.523,4.864,4.523,7.692v6.083c0,3.917,0.657,8.12,1.954,12.495l0.697,2.352
				c0.078,0.265-0.072,0.543-0.337,0.622C390.884,163.548,390.836,163.554,390.789,163.554z"/>
			<path style="fill:#FFFFFF;" d="M385.183,153.002c-0.23,0-0.438-0.16-0.488-0.395l-0.46-2.139
				c-0.44-2.052-0.664-4.157-0.664-6.255v-5.636c0-0.276,0.224-0.5,0.5-0.5s0.5,0.224,0.5,0.5v5.636
				c0,2.028,0.216,4.063,0.643,6.045l0.46,2.139c0.058,0.27-0.114,0.536-0.384,0.594
				C385.253,152.999,385.218,153.002,385.183,153.002z"/>
			<path style="fill:#FFFFFF;" d="M369.76,142.154c-0.254,0-0.471-0.192-0.496-0.451l-0.291-2.925
				c-0.027-0.274,0.173-0.52,0.447-0.547c0.298-0.018,0.52,0.173,0.547,0.448l0.291,2.925c0.027,0.274-0.173,0.519-0.447,0.547
				C369.793,142.153,369.776,142.154,369.76,142.154z"/>
		</g>
	</g>
	<g>
		<g>
			<path style="fill:#FD800C;" d="M412.594,211.536l-48.979-27.741c-1.403-0.81-2.664-0.749-3.558-0.007l-4.232,2.926l2.886,3.568
				v51.626c0,3.611,2.195,7.806,4.904,9.37l47.763,27.039l0.225,3.845l4.459-3.056c0.887-0.671,1.436-1.989,1.436-3.794v-54.406
				C417.497,217.294,415.302,213.099,412.594,211.536z"/>
			<path style="opacity:0.3;" d="M412.594,211.536l-48.979-27.741c-1.403-0.81-2.664-0.749-3.558-0.007l-4.232,2.926l2.886,3.568
				v51.626c0,3.611,2.195,7.806,4.904,9.37l47.763,27.039l0.225,3.845l4.459-3.056c0.887-0.671,1.436-1.989,1.436-3.794v-54.406
				C417.497,217.294,415.302,213.099,412.594,211.536z"/>
			<path style="fill:#FD800C;" d="M408.43,281.885l-48.979-27.741c-2.708-1.563-4.904-5.758-4.904-9.37v-54.406
				c0-3.611,2.196-5.271,4.904-3.707l48.979,27.741c2.708,1.564,4.904,5.759,4.904,9.37v54.406
				C413.334,281.789,411.138,283.448,408.43,281.885z"/>
		</g>
		<g>
			<path style="fill:#FFFFFF;" d="M365.449,205.548c-0.276,0-0.5-0.224-0.5-0.5v-3.373c0-0.682,0.355-1.295,0.949-1.642
				c0.607-0.354,1.336-0.359,1.947-0.012l3.535,2.003c0.24,0.136,0.325,0.441,0.188,0.682c-0.137,0.241-0.444,0.323-0.681,0.189
				l-3.535-2.003c-0.3-0.169-0.653-0.167-0.951,0.006c-0.288,0.168-0.453,0.451-0.453,0.778v3.373
				C365.949,205.324,365.726,205.548,365.449,205.548z"/>
			<path style="fill:#FFFFFF;" d="M371.135,251.925c-0.084,0-0.169-0.021-0.246-0.065l-3.303-1.872
				c-1.627-0.921-2.637-2.64-2.637-4.486v-3.109c0-0.276,0.224-0.5,0.5-0.5c0.276,0,0.5,0.224,0.5,0.5v3.109
				c0,1.486,0.815,2.872,2.129,3.616l3.303,1.872c0.24,0.136,0.325,0.441,0.188,0.682
				C371.478,251.833,371.309,251.925,371.135,251.925z"/>
			<path style="fill:#FFFFFF;" d="M400.997,268.631c-0.33,0-0.661-0.085-0.963-0.257l-3.535-2.003
				c-0.24-0.136-0.325-0.441-0.189-0.682c0.136-0.241,0.442-0.323,0.681-0.189l3.535,2.003c0.301,0.169,0.656,0.167,0.951-0.006
				c0.288-0.167,0.453-0.451,0.453-0.777v-3.373c0-0.276,0.224-0.5,0.5-0.5c0.276,0,0.5,0.224,0.5,0.5v3.373
				c0,0.681-0.354,1.295-0.949,1.641C401.674,268.541,401.336,268.631,400.997,268.631z"/>
			<path style="fill:#FFFFFF;" d="M402.431,226.502c-0.276,0-0.5-0.224-0.5-0.5v-3.109c0-1.486-0.815-2.872-2.129-3.616
				l-3.303-1.872c-0.24-0.136-0.325-0.441-0.189-0.682c0.136-0.24,0.442-0.325,0.681-0.189l3.303,1.872
				c1.627,0.921,2.637,2.64,2.637,4.486v3.109C402.931,226.279,402.707,226.502,402.431,226.502z"/>
		</g>
		<g>
			<path style="fill:#FFFFFF;" d="M369.884,222.371c0.075,5.911,1.031,11.604,2.413,16.804
				c3.808,14.332,18.793,23.147,22.912,13.437c1.641-3.868,2.79-8.807,2.79-15.053c0-8.8-6.295-19.5-14.061-23.9
				C376.022,209.174,369.769,213.337,369.884,222.371z"/>
		</g>
		<polygon style="fill:#E0E0E0;" points="383.439,230.38 383.439,239.802 379.346,236.738 		"/>
		<g>
			<path style="fill:#E0E0E0;" d="M375.826,224.754c0,0.844,0.604,1.87,1.349,2.293c0.745,0.422,1.349,0.08,1.349-0.764
				c0-0.844-0.604-1.87-1.349-2.293C376.43,223.568,375.826,223.91,375.826,224.754z"/>
			<path style="fill:#E0E0E0;" d="M388.355,231.928c0,0.844,0.604,1.87,1.349,2.293c0.745,0.422,1.349,0.08,1.349-0.764
				c0-0.844-0.604-1.87-1.349-2.293C388.958,230.742,388.355,231.084,388.355,231.928z"/>
		</g>
		<path style="fill:#E0E0E0;" d="M382.09,244.413l4.571-0.775C386.661,243.638,385.687,248.522,382.09,244.413z"/>
	</g>
</g>
<g id="Character">
	<g>
		<path style="fill:#FFA8A7;" d="M308.378,253.204c0,0,7.289-0.491,11.424,9.64c2.57,6.298,5.7,16.03,7.7,22.494
			c1.243,4.016-0.04,8.383-3.26,11.085l-12.71,10.664l-4.548-8.27c0,0,4.903-6.542,8.683-9.924l-8.683-26.05L308.378,253.204z"/>
		<path style="fill:#FD800C;" d="M311.739,284.138c0,0,11.578,1.531,14.472-7.401c0,0-4.962-13.067-7.236-17.408
			c-2.274-4.342-6.928-7.495-10.597-6.125C304.709,254.574,311.739,284.138,311.739,284.138z"/>
		<path style="opacity:0.4;fill:#FFFFFF;" d="M311.739,284.138c0,0,11.578,1.531,14.472-7.401c0,0-4.962-13.067-7.236-17.408
			c-2.274-4.342-6.928-7.495-10.597-6.125C304.709,254.574,311.739,284.138,311.739,284.138z"/>
		<path style="fill:#37474F;" d="M304.013,401.4c0,0-5.505-4.714-7.641-4.935c-2.136-0.221-5.84,3.441-2.712,9.796
			c0.87,1.768,4.406,3.683,6.616,7.071c2.21,3.388,4.198,5.935,7.587,5.472c3.388-0.463,3.83-2.378,3.609-4.588
			c-0.221-2.21-1.215-6.003-1.215-6.003L304.013,401.4z"/>
		<path style="fill:#263238;" d="M308.043,417.789c-3.492,0.477-5.542-2.148-7.82-5.64c-2.278-3.492-5.922-5.466-6.819-7.289
			c-0.395-0.801-0.681-1.56-0.88-2.276c0.127,1.098,0.47,2.322,1.136,3.676c0.87,1.768,4.406,3.683,6.616,7.071
			c2.21,3.388,4.198,5.935,7.587,5.472c2.595-0.355,3.456-1.564,3.62-3.102C311.034,416.738,310.049,417.515,308.043,417.789z"/>
		<path style="fill:#EBEBEB;" d="M301.077,407.457c-0.085,0-0.171-0.021-0.251-0.063c-0.26-0.139-0.358-0.462-0.22-0.722
			c0.071-0.134,1.789-3.289,5.176-4.057c0.293-0.067,0.574,0.115,0.64,0.403c0.065,0.288-0.115,0.574-0.403,0.639
			c-2.901,0.659-4.454,3.49-4.47,3.519C301.453,407.354,301.269,407.457,301.077,407.457z"/>
		<path style="fill:#EBEBEB;" d="M299.022,405.563c-0.085,0-0.171-0.02-0.251-0.063c-0.26-0.139-0.358-0.462-0.22-0.722
			c0.071-0.134,1.788-3.289,5.176-4.057c0.292-0.067,0.574,0.115,0.64,0.403c0.065,0.288-0.115,0.574-0.403,0.639
			c-2.902,0.659-4.454,3.49-4.47,3.519C299.397,405.46,299.213,405.563,299.022,405.563z"/>
		<path style="fill:#EBEBEB;" d="M296.673,403.669c-0.085,0-0.171-0.021-0.251-0.063c-0.26-0.139-0.358-0.462-0.22-0.722
			c0.071-0.134,1.788-3.288,5.175-4.057c0.291-0.068,0.574,0.115,0.64,0.403s-0.115,0.574-0.403,0.639
			c-2.901,0.659-4.453,3.49-4.469,3.518C297.049,403.566,296.864,403.669,296.673,403.669z"/>
		<path style="fill:#37474F;" d="M274.732,416.851c0,0-7.374-2.392-9.574-1.732c-2.2,0.66-4.352,5.799,1.349,10.788
			c1.586,1.388,5.865,1.826,9.439,4.263c3.575,2.438,6.585,4.135,9.741,2.285c3.156-1.85,2.898-3.978,2.336-6.286
			c-0.715-2.94-1.29-5.076-1.29-5.076L274.732,416.851z"/>
		<path style="fill:#263238;" d="M285.449,431.379c-3.252,1.907-6.356,0.158-10.04-2.355c-3.685-2.513-8.095-2.964-9.73-4.394
			c-0.719-0.629-1.313-1.26-1.804-1.885c0.577,1.032,1.418,2.1,2.633,3.163c1.586,1.388,5.865,1.826,9.439,4.263
			c3.575,2.438,6.585,4.135,9.741,2.285c2.417-1.417,2.77-2.965,2.3-4.552C287.971,429.11,287.318,430.283,285.449,431.379z"/>
		<path style="fill:#EBEBEB;" d="M272.973,423.658c-0.018,0-0.035-0.001-0.053-0.003c-0.293-0.028-0.508-0.289-0.48-0.582
			c0.016-0.161,0.412-3.965,3.428-6.106c0.239-0.171,0.572-0.115,0.745,0.126c0.171,0.241,0.114,0.574-0.126,0.745
			c-2.61,1.854-2.979,5.303-2.982,5.338C273.477,423.452,273.244,423.658,272.973,423.658z"/>
		<path style="fill:#EBEBEB;" d="M276.018,424.655c-0.018,0-0.035-0.001-0.053-0.003c-0.294-0.028-0.509-0.289-0.48-0.582
			c0.016-0.161,0.413-3.965,3.428-6.106c0.239-0.171,0.573-0.115,0.745,0.126c0.171,0.241,0.114,0.574-0.126,0.745
			c-2.609,1.854-2.98,5.303-2.983,5.338C276.522,424.448,276.289,424.655,276.018,424.655z"/>
		<path style="fill:#EBEBEB;" d="M270.164,422.633c-0.018,0-0.035-0.001-0.053-0.003c-0.293-0.028-0.508-0.289-0.48-0.582
			c0.016-0.161,0.412-3.965,3.428-6.106c0.239-0.171,0.573-0.115,0.745,0.126c0.171,0.241,0.114,0.574-0.126,0.745
			c-2.61,1.854-2.979,5.303-2.982,5.338C270.668,422.427,270.435,422.633,270.164,422.633z"/>
		<g>
			<path style="fill:#455A64;" d="M310.601,402.805c0.66-7.302,2.091-18.742,2.686-24.091c1.063-9.556,0.089-16.845-0.576-20.311
				c-0.305-1.587-0.39-3.192-0.23-4.8c1.446-14.542,2.395-38.109,1.593-43.289l-20.413,4.319c0,0,2.499,33.066,3.595,44.065
				c1.103,11.072,5.207,44.202,5.207,44.202C304.169,403.905,307.268,405.004,310.601,402.805z"/>
			<path style="fill:#FFA8A7;" d="M307.659,410.312c1.768-0.276,2.596-2.099,2.596-2.099c0-1.151,0.134-3.072,0.345-5.408
				c-3.333,2.199-6.431,1.1-8.139,0.095l0.723,6.142C304.014,409.981,305.892,410.589,307.659,410.312z"/>
		</g>
		<path style="fill:#455A64;" d="M287.637,415.635c0.833-11.05,2.441-32.468,2.656-35.831c0.216-3.394-0.16-8.067-0.704-11.114
			c-0.354-1.983-0.325-4.012,0.033-5.994l8.971-49.774l-24.667-0.361l-1.614,52.145c-0.021,0.674,0.005,1.349,0.077,2.019
			l5.232,48.6l0,0C277.62,415.325,282.722,419.604,287.637,415.635z"/>
		<path style="fill:#FFA8A7;" d="M283.524,424.761c1.774-0.166,3.368-1.664,3.616-2.541c0,0,0.199-2.637,0.497-6.585
			c-4.914,3.969-10.017-0.31-10.017-0.31l0,0l0.785,7.288C278.404,422.613,279.564,425.132,283.524,424.761z"/>
		<path style="fill:#FD800C;" d="M285.323,256.518l-5.819,1.989l-6.261,29.61l0.303,26.256c0,0,4.471,3.563,21.934,3.563
			c9.803,0,16.184-3.692,18.592-7.622l-1.57-15.862c0,0,1.57-15.63,1.57-23.357c0-7.726,0.345-14.061-5.695-17.891l-5.377,0.442
			L285.323,256.518z"/>
		<path style="opacity:0.2;fill:#FFFFFF;" d="M285.323,256.518l-5.819,1.989l-6.261,29.61l0.303,26.256
			c0,0,4.471,3.563,21.934,3.563c9.803,0,16.184-3.692,18.592-7.622l-1.57-15.862c0,0,1.57-15.63,1.57-23.357
			c0-7.726,0.345-14.061-5.695-17.891l-5.377,0.442L285.323,256.518z"/>
		<path style="fill:#F28F8F;" d="M279.004,231.073l-2.914,5.767c-0.18,0.356-0.002,0.789,0.377,0.915l3.458,1.152L279.004,231.073z"
			/>
		<path style="fill:#FFA8A7;" d="M283.04,221.399c0,0-4.419,2.381-4.419,16.043c0,7.513,0.516,12.3,4.419,12.006
			c3.904-0.295,15.136-1.768,15.136-1.768v-26.281H283.04z"/>
		<path style="fill:#F28F8F;" d="M283.04,249.447c1.372-0.103,3.651-0.353,6.027-0.633v-1.393c-2.186,1.121-6.086,1.907-6.679,2.022
			C282.595,249.461,282.81,249.465,283.04,249.447z"/>
		<polygon style="fill:#FFA8A7;" points="288.398,246.839 288.398,255.414 300.128,255.414 300.128,243.365 		"/>
		<path style="fill:#FD800C;" d="M288.398,252.148c0,0,4.217,1.498,7.605,0.909c3.388-0.589,4.125-2.652,4.125-2.652
			s1.105-0.084,2.873,3.241c0,0-2.071,4.138-6.85,4.419c-6.261,0.368-10.828-1.547-10.828-1.547S286.953,251.722,288.398,252.148z"
			/>
		<path style="opacity:0.4;fill:#FFFFFF;" d="M288.398,252.148c0,0,4.217,1.498,7.605,0.909c3.388-0.589,4.125-2.652,4.125-2.652
			s1.105-0.084,2.873,3.241c0,0-2.071,4.138-6.85,4.419c-6.261,0.368-10.828-1.547-10.828-1.547S286.953,251.722,288.398,252.148z"
			/>
		<path style="fill:#FFA8A7;" d="M262.232,277.586l-3.15,4.847c0,0-7.65-3.411-13.025-5.479c-5.375-2.067-8.58-4.939-8.58-4.939
			s0.414-4.104,1.034-6.198c0.62-2.094,0.827-3.852-1.034-2.921c-1.861,0.93-3.101,4.548-3.204,4.962
			c0,0-10.751-10.802-12.095-10.57c-1.344,0.233-1.033,1.86,1.861,5.194c2.893,3.335,2.893,3.335,2.893,3.335
			s-6.594,3.798-5.519,7.933s9.758,5.996,9.758,5.996s25.424,19.537,31.061,16.023c5.636-3.515,13.596-13.645,13.596-13.645
			L262.232,277.586z"/>
		<path style="fill:#FD800C;" d="M281.812,257.753c0,0,4.693,3.859,1.635,11.837c-3.059,7.978-10.865,17.617-10.865,17.617
			s-8.186-2.544-11.343-9.156l10.319-16.147c1.491-2.333,3.993-3.816,6.756-3.998C279.287,257.843,280.445,257.788,281.812,257.753z
			"/>
		<path style="opacity:0.4;fill:#FFFFFF;" d="M281.812,257.753c0,0,4.693,3.859,1.635,11.837
			c-3.059,7.978-10.865,17.617-10.865,17.617s-8.186-2.544-11.343-9.156l10.319-16.147c1.491-2.333,3.993-3.816,6.756-3.998
			C279.287,257.843,280.445,257.788,281.812,257.753z"/>
		<path style="fill:#263238;" d="M281.346,213.356c0,0-4.636-0.616-5.819,2.578c-0.737,1.989,1.621,3.536,1.621,3.536
			s-2.991,2.815,1.473,3.683c0,0-0.368,3.83,3.609,3.314c0,0-0.516,3.037,3.388,4.097c0,0-1.973,5.258,1.739,5.331h3.475
			l-1.401,4.051c0,0,2.595,6.261,10.698,6.261c0,0,2.063-4.272,3.02-5.524c0.958-1.252,5.966-7.66,5.966-12.742
			c0-5.082-1.955-8.093-4.66-8.761c0,0-1.158-2.803-3.884-4.645c-2.725-1.841-8.47-3.484-11.711-1.226c0,0-2.873-3.767-4.861-3.767
			C282.009,209.541,281.346,211.588,281.346,213.356z"/>
		<path style="fill:#FFA8A7;" d="M287.357,235.895c0,0-0.339-5.331,4.154-5.331s3.427,9.382-2.08,9.382L287.357,235.895z"/>
	</g>
</g>
</svg>
